<svg width="48" height="48" viewBox="0 0 48 48" fill="none" xmlns="http://www.w3.org/2000/svg">
<mask id="path-1-outside-1_3620_398" maskUnits="userSpaceOnUse" x="2.96448" y="3" width="42" height="42" fill="black">
<rect fill="white" x="2.96448" y="3" width="42" height="42"/>
<path d="M8.49998 44.0355C7.90412 44.0371 7.31385 43.9206 6.76333 43.6926C6.2128 43.4646 5.71296 43.1297 5.29273 42.7073C4.43623 41.8505 3.96448 40.7115 3.96448 39.5C3.96448 38.2885 4.43623 37.1495 5.29273 36.2928L17.2927 24.2928L18.7072 25.7072L6.70723 37.7073C6.22823 38.186 5.96448 38.8228 5.96448 39.5C5.96448 40.1773 6.22823 40.814 6.70698 41.2928C7.18598 41.7718 7.82273 42.0355 8.49998 42.0355C9.17723 42.0355 9.81398 41.7718 10.2927 41.293L22.2927 29.293L23.7072 30.7073L11.7072 42.7073C11.287 43.1297 10.7872 43.4646 10.2366 43.6926C9.68611 43.9206 9.09584 44.0371 8.49998 44.0355ZM36.4142 16H39.5927L43.862 8.19775L39.8022 4.138L32 8.4075V11.586L25.2927 18.293L26.7072 19.7075L34 12.4142V9.5925L39.4477 6.61175L41.388 8.552L38.4075 14H35.586L28.293 21.2927L29.7075 22.7072L36.4142 16ZM44 37H41.9155C41.4927 39.5085 39.5085 41.4925 37 41.9155V44H35V41.9155C32.4915 41.4928 30.5075 39.5085 30.0845 37H28V35H30.0845C30.5072 32.4915 32.4915 30.5075 35 30.0845V28.0003H37V30.0845C39.5085 30.5073 41.4925 32.4915 41.9155 35H44V37ZM40.0002 36H36V31.9998C33.7942 31.9998 31.9997 33.7943 31.9997 36H36V40.0003C38.2057 40.0003 40.0002 38.2057 40.0002 36ZM16.7775 15.1915L31.1937 29.6078C31.7483 29.1895 32.3551 28.8454 32.9987 28.5843L19.195 14.7807C19.2012 14.7657 19.2062 14.75 19.2122 14.735L19.2165 14.723C19.2904 14.5323 19.3573 14.3389 19.417 14.1432C19.4362 14.0792 19.454 14.015 19.4715 13.9507V13.9505C19.486 13.8975 19.5007 13.8447 19.514 13.7915C19.5407 13.685 19.5647 13.5777 19.587 13.4702L19.5965 13.4262C19.6142 13.3367 19.6297 13.2467 19.6445 13.1565V13.1562L19.6557 13.0897C19.6725 12.9808 19.6869 12.8715 19.699 12.762L19.7065 12.697C19.7213 12.5562 19.7324 12.4151 19.7397 12.2737L19.74 12.2695C19.7465 12.1385 19.75 12.007 19.75 11.875C19.75 7.5325 16.2175 4 11.875 4C11.7467 4 11.6195 4.0035 11.4927 4.00975C11.4472 4.01175 11.402 4.016 11.3565 4.01875C11.2765 4.024 11.1962 4.0295 11.1165 4.037C11.0597 4.0425 11.0032 4.0495 10.9465 4.05625C10.8802 4.064 10.814 4.072 10.7485 4.0815C10.6837 4.09075 10.6192 4.1015 10.555 4.11225C10.4272 4.13379 10.3 4.15846 10.1735 4.18625C10.1302 4.196 10.087 4.20625 10.044 4.21625C9.96298 4.23575 9.88223 4.25575 9.80173 4.27775C9.77148 4.286 9.74123 4.295 9.71098 4.3035C9.61999 4.32935 9.52947 4.35686 9.43948 4.386L9.39448 4.401C9.29248 4.435 9.19073 4.47025 9.08998 4.5085L9.08548 4.51C8.62106 4.68586 8.17438 4.90543 7.75148 5.16575L12.2927 9.70725C13.0057 10.42 13.0057 11.5797 12.2927 12.2927C11.5797 13.0057 10.4202 13.0057 9.70723 12.2927L5.16573 7.7515C4.90489 8.17532 4.68498 8.62301 4.50898 9.0885L4.50848 9.08975C4.47073 9.18975 4.43598 9.29 4.40223 9.39075L4.38523 9.44075C4.35648 9.5295 4.32998 9.61875 4.30423 9.70825C4.29523 9.74 4.28598 9.7715 4.27723 9.80325C4.24378 9.9264 4.21335 10.0504 4.18598 10.175C4.12968 10.4302 4.08629 10.688 4.05598 10.9475C4.04948 11.0037 4.04248 11.06 4.03723 11.1165C4.02948 11.1962 4.02398 11.2765 4.01873 11.357C4.01598 11.4023 4.01173 11.4473 4.00973 11.4928C4.00343 11.6201 4.00018 11.7475 3.99998 11.875C3.99998 16.2175 7.53248 19.75 11.875 19.75C12.007 19.75 12.1385 19.7465 12.2695 19.74L12.2737 19.7397C12.415 19.7325 12.5561 19.7214 12.6967 19.7065L12.7617 19.699H12.7627C12.8943 19.6842 13.0255 19.6662 13.1562 19.6448H13.1565C13.2465 19.6298 13.3365 19.6142 13.426 19.5965L13.4702 19.587C13.5777 19.5647 13.685 19.5407 13.7915 19.514C13.8447 19.5007 13.8975 19.486 13.9505 19.4715C14.015 19.454 14.0792 19.4362 14.143 19.4167C14.3388 19.3576 14.5322 19.2908 14.7227 19.2165L14.735 19.2122C14.75 19.2062 14.7655 19.201 14.7807 19.195L28.5842 32.9988C28.8454 32.3549 29.1895 31.748 29.6077 31.1933L15.1915 16.7775L14.5437 17.1085C13.7181 17.5324 12.803 17.7524 11.875 17.75C8.63548 17.75 5.99998 15.1145 5.99998 11.875C5.99998 11.7263 6.00548 11.578 6.01648 11.4308L8.29273 13.7072C9.01598 14.43 9.97748 14.8285 11 14.8285C12.0225 14.8285 12.984 14.4302 13.7072 13.7072C14.43 12.984 14.8285 12.0225 14.8285 11C14.8285 9.9775 14.4302 9.016 13.7072 8.29275L11.4307 6.0165C11.5786 6.00549 11.7267 5.99998 11.875 6C15.1145 6 17.75 8.6355 17.75 11.875C17.75 12.8125 17.534 13.7105 17.1082 14.5437L16.7772 15.1915H16.7775Z"/>
</mask>
<path d="M8.49998 44.0355C7.90412 44.0371 7.31385 43.9206 6.76333 43.6926C6.2128 43.4646 5.71296 43.1297 5.29273 42.7073C4.43623 41.8505 3.96448 40.7115 3.96448 39.5C3.96448 38.2885 4.43623 37.1495 5.29273 36.2928L17.2927 24.2928L18.7072 25.7072L6.70723 37.7073C6.22823 38.186 5.96448 38.8228 5.96448 39.5C5.96448 40.1773 6.22823 40.814 6.70698 41.2928C7.18598 41.7718 7.82273 42.0355 8.49998 42.0355C9.17723 42.0355 9.81398 41.7718 10.2927 41.293L22.2927 29.293L23.7072 30.7073L11.7072 42.7073C11.287 43.1297 10.7872 43.4646 10.2366 43.6926C9.68611 43.9206 9.09584 44.0371 8.49998 44.0355ZM36.4142 16H39.5927L43.862 8.19775L39.8022 4.138L32 8.4075V11.586L25.2927 18.293L26.7072 19.7075L34 12.4142V9.5925L39.4477 6.61175L41.388 8.552L38.4075 14H35.586L28.293 21.2927L29.7075 22.7072L36.4142 16ZM44 37H41.9155C41.4927 39.5085 39.5085 41.4925 37 41.9155V44H35V41.9155C32.4915 41.4928 30.5075 39.5085 30.0845 37H28V35H30.0845C30.5072 32.4915 32.4915 30.5075 35 30.0845V28.0003H37V30.0845C39.5085 30.5073 41.4925 32.4915 41.9155 35H44V37ZM40.0002 36H36V31.9998C33.7942 31.9998 31.9997 33.7943 31.9997 36H36V40.0003C38.2057 40.0003 40.0002 38.2057 40.0002 36ZM16.7775 15.1915L31.1937 29.6078C31.7483 29.1895 32.3551 28.8454 32.9987 28.5843L19.195 14.7807C19.2012 14.7657 19.2062 14.75 19.2122 14.735L19.2165 14.723C19.2904 14.5323 19.3573 14.3389 19.417 14.1432C19.4362 14.0792 19.454 14.015 19.4715 13.9507V13.9505C19.486 13.8975 19.5007 13.8447 19.514 13.7915C19.5407 13.685 19.5647 13.5777 19.587 13.4702L19.5965 13.4262C19.6142 13.3367 19.6297 13.2467 19.6445 13.1565V13.1562L19.6557 13.0897C19.6725 12.9808 19.6869 12.8715 19.699 12.762L19.7065 12.697C19.7213 12.5562 19.7324 12.4151 19.7397 12.2737L19.74 12.2695C19.7465 12.1385 19.75 12.007 19.75 11.875C19.75 7.5325 16.2175 4 11.875 4C11.7467 4 11.6195 4.0035 11.4927 4.00975C11.4472 4.01175 11.402 4.016 11.3565 4.01875C11.2765 4.024 11.1962 4.0295 11.1165 4.037C11.0597 4.0425 11.0032 4.0495 10.9465 4.05625C10.8802 4.064 10.814 4.072 10.7485 4.0815C10.6837 4.09075 10.6192 4.1015 10.555 4.11225C10.4272 4.13379 10.3 4.15846 10.1735 4.18625C10.1302 4.196 10.087 4.20625 10.044 4.21625C9.96298 4.23575 9.88223 4.25575 9.80173 4.27775C9.77148 4.286 9.74123 4.295 9.71098 4.3035C9.61999 4.32935 9.52947 4.35686 9.43948 4.386L9.39448 4.401C9.29248 4.435 9.19073 4.47025 9.08998 4.5085L9.08548 4.51C8.62106 4.68586 8.17438 4.90543 7.75148 5.16575L12.2927 9.70725C13.0057 10.42 13.0057 11.5797 12.2927 12.2927C11.5797 13.0057 10.4202 13.0057 9.70723 12.2927L5.16573 7.7515C4.90489 8.17532 4.68498 8.62301 4.50898 9.0885L4.50848 9.08975C4.47073 9.18975 4.43598 9.29 4.40223 9.39075L4.38523 9.44075C4.35648 9.5295 4.32998 9.61875 4.30423 9.70825C4.29523 9.74 4.28598 9.7715 4.27723 9.80325C4.24378 9.9264 4.21335 10.0504 4.18598 10.175C4.12968 10.4302 4.08629 10.688 4.05598 10.9475C4.04948 11.0037 4.04248 11.06 4.03723 11.1165C4.02948 11.1962 4.02398 11.2765 4.01873 11.357C4.01598 11.4023 4.01173 11.4473 4.00973 11.4928C4.00343 11.6201 4.00018 11.7475 3.99998 11.875C3.99998 16.2175 7.53248 19.75 11.875 19.75C12.007 19.75 12.1385 19.7465 12.2695 19.74L12.2737 19.7397C12.415 19.7325 12.5561 19.7214 12.6967 19.7065L12.7617 19.699H12.7627C12.8943 19.6842 13.0255 19.6662 13.1562 19.6448H13.1565C13.2465 19.6298 13.3365 19.6142 13.426 19.5965L13.4702 19.587C13.5777 19.5647 13.685 19.5407 13.7915 19.514C13.8447 19.5007 13.8975 19.486 13.9505 19.4715C14.015 19.454 14.0792 19.4362 14.143 19.4167C14.3388 19.3576 14.5322 19.2908 14.7227 19.2165L14.735 19.2122C14.75 19.2062 14.7655 19.201 14.7807 19.195L28.5842 32.9988C28.8454 32.3549 29.1895 31.748 29.6077 31.1933L15.1915 16.7775L14.5437 17.1085C13.7181 17.5324 12.803 17.7524 11.875 17.75C8.63548 17.75 5.99998 15.1145 5.99998 11.875C5.99998 11.7263 6.00548 11.578 6.01648 11.4308L8.29273 13.7072C9.01598 14.43 9.97748 14.8285 11 14.8285C12.0225 14.8285 12.984 14.4302 13.7072 13.7072C14.43 12.984 14.8285 12.0225 14.8285 11C14.8285 9.9775 14.4302 9.016 13.7072 8.29275L11.4307 6.0165C11.5786 6.00549 11.7267 5.99998 11.875 6C15.1145 6 17.75 8.6355 17.75 11.875C17.75 12.8125 17.534 13.7105 17.1082 14.5437L16.7772 15.1915H16.7775Z" fill="#CA3E5D"/>
<path d="M8.49998 44.0355L8.50107 43.6355L8.49888 43.6355L8.49998 44.0355ZM5.29273 42.7073L5.57631 42.4251L5.57561 42.4244L5.29273 42.7073ZM5.29273 36.2928L5.00989 36.0099L5.00984 36.01L5.29273 36.2928ZM17.2927 24.2928L17.5756 24.0099L17.2927 23.7271L17.0099 24.0099L17.2927 24.2928ZM18.7072 25.7072L18.9901 25.9901L19.2729 25.7072L18.9901 25.4244L18.7072 25.7072ZM6.70723 37.7073L6.99 37.9902L6.99007 37.9901L6.70723 37.7073ZM10.2927 41.293L10.5756 41.5758L10.2927 41.293ZM22.2927 29.293L22.5755 29.0101L22.2927 28.7273L22.0099 29.0102L22.2927 29.293ZM23.7072 30.7073L23.9901 30.9901L24.2729 30.7072L23.99 30.4244L23.7072 30.7073ZM11.7072 42.7073L11.4244 42.4244L11.4236 42.4251L11.7072 42.7073ZM36.4142 16V15.6H36.2485L36.1314 15.7172L36.4142 16ZM39.5927 16V16.4H39.8298L39.9436 16.192L39.5927 16ZM43.862 8.19775L44.2129 8.38976L44.3568 8.12683L44.1448 7.91491L43.862 8.19775ZM39.8022 4.138L40.0851 3.85516L39.8731 3.64322L39.6102 3.7871L39.8022 4.138ZM32 8.4075L31.808 8.0566L31.6 8.17041V8.4075H32ZM32 11.586L32.2828 11.8688L32.4 11.7517V11.586H32ZM25.2927 18.293L25.0099 18.0102L24.727 18.293L25.0099 18.5758L25.2927 18.293ZM26.7072 19.7075L26.4244 19.9903L26.7072 20.2732L26.9901 19.9903L26.7072 19.7075ZM34 12.4142L34.2828 12.6971L34.4 12.5799V12.4142H34ZM34 9.5925L33.808 9.24159L33.6 9.3554V9.5925H34ZM39.4477 6.61175L39.7306 6.32891L39.5187 6.11699L39.2557 6.26084L39.4477 6.61175ZM41.388 8.552L41.7389 8.74398L41.8827 8.48107L41.6708 8.26916L41.388 8.552ZM38.4075 14V14.4H38.6446L38.7584 14.192L38.4075 14ZM35.586 14V13.6H35.4203L35.3031 13.7172L35.586 14ZM28.293 21.2927L28.0101 21.0099L27.7273 21.2927L28.0101 21.5756L28.293 21.2927ZM29.7075 22.7072L29.4246 22.9901L29.7075 23.2729L29.9903 22.9901L29.7075 22.7072ZM44 37V37.4H44.4V37H44ZM41.9155 37V36.6H41.5773L41.521 36.9335L41.9155 37ZM37 41.9155L36.9335 41.5211L36.6 41.5773V41.9155H37ZM37 44V44.4H37.4V44H37ZM35 44H34.6V44.4H35V44ZM35 41.9155H35.4V41.5773L35.0665 41.5211L35 41.9155ZM30.0845 37L30.4789 36.9335L30.4227 36.6H30.0845V37ZM28 37H27.6V37.4H28V37ZM28 35V34.6H27.6V35H28ZM30.0845 35V35.4H30.4227L30.4789 35.0665L30.0845 35ZM35 30.0845L35.0665 30.4789L35.4 30.4227V30.0845H35ZM35 28.0003V27.6003H34.6V28.0003H35ZM37 28.0003H37.4V27.6003H37V28.0003ZM37 30.0845H36.6V30.4227L36.9335 30.4789L37 30.0845ZM41.9155 35L41.521 35.0665L41.5773 35.4H41.9155V35ZM44 35H44.4V34.6H44V35ZM40.0002 36H40.4002V35.6H40.0002V36ZM36 31.9998H36.4V31.5998H36V31.9998ZM31.9997 36H31.5997V36.4H31.9997V36ZM36 40.0003H35.6V40.4003H36V40.0003ZM16.7775 15.1915L17.0603 14.9087L16.9432 14.7915H16.7775V15.1915ZM31.1937 29.6078L30.9109 29.8906L31.1569 30.1366L31.4346 29.9271L31.1937 29.6078ZM32.9987 28.5843L33.1491 28.9549L33.7082 28.728L33.2816 28.3014L32.9987 28.5843ZM19.195 14.7807L18.8257 14.6269L18.7227 14.8742L18.9121 15.0636L19.195 14.7807ZM19.2122 14.735L19.5836 14.8836L19.5866 14.8761L19.5893 14.8685L19.2122 14.735ZM19.2165 14.723L18.8433 14.5784L18.8394 14.5895L19.2165 14.723ZM19.417 14.1432L19.7996 14.26L19.8 14.2585L19.417 14.1432ZM19.4715 13.9507L19.8574 14.0559L19.8715 14.0042V13.9507H19.4715ZM19.4715 13.9505L19.0857 13.8449L19.0715 13.8968V13.9505H19.4715ZM19.514 13.7915L19.126 13.6941L19.1258 13.6949L19.514 13.7915ZM19.587 13.4702L19.196 13.3858L19.1953 13.3892L19.587 13.4702ZM19.5965 13.4262L19.9875 13.5107L19.9888 13.5041L19.5965 13.4262ZM19.6445 13.1565L20.0392 13.221L20.0445 13.189V13.1565H19.6445ZM19.6445 13.1562L19.2501 13.0895L19.2445 13.1227V13.1562H19.6445ZM19.6557 13.0897L20.0502 13.1565L20.0511 13.1504L19.6557 13.0897ZM19.699 12.762L19.3016 12.7161L19.3014 12.7181L19.699 12.762ZM19.7065 12.697L20.1039 12.7429L20.1043 12.739L19.7065 12.697ZM19.7397 12.2737L19.3404 12.2502L19.3403 12.2531L19.7397 12.2737ZM19.74 12.2695L20.1393 12.293L20.1395 12.2893L19.74 12.2695ZM19.75 11.875H20.15H19.75ZM11.4927 4.00975L11.5103 4.40937L11.5124 4.40926L11.4927 4.00975ZM11.3565 4.01875L11.3323 3.61947L11.3303 3.61961L11.3565 4.01875ZM11.1165 4.037L11.079 3.63876L11.0779 3.63887L11.1165 4.037ZM10.9465 4.05625L10.993 4.45354L10.9937 4.45345L10.9465 4.05625ZM10.7485 4.0815L10.805 4.47748L10.8059 4.47736L10.7485 4.0815ZM10.555 4.11225L10.489 3.71773L10.4885 3.71782L10.555 4.11225ZM10.1735 4.18625L10.0877 3.79555L10.0855 3.79604L10.1735 4.18625ZM10.044 4.21625L9.95337 3.82664L9.95036 3.82736L10.044 4.21625ZM9.80173 4.27775L9.90698 4.66366L9.90718 4.6636L9.80173 4.27775ZM9.71098 4.3035L9.60277 3.91841L9.60165 3.91873L9.71098 4.3035ZM9.43948 4.386L9.31625 4.00544L9.31299 4.00653L9.43948 4.386ZM9.39448 4.401L9.26799 4.02153L9.26799 4.02153L9.39448 4.401ZM9.08998 4.5085L9.21647 4.88797L9.22427 4.88537L9.23195 4.88246L9.08998 4.5085ZM9.08548 4.51L8.95899 4.13053L8.95135 4.13307L8.94383 4.13592L9.08548 4.51ZM7.75148 5.16575L7.5418 4.82511L7.1106 5.09054L7.46863 5.44858L7.75148 5.16575ZM12.2927 9.70725L12.0099 9.99008L12.0099 9.99014L12.2927 9.70725ZM9.70723 12.2927L9.99007 12.0099L9.99006 12.0099L9.70723 12.2927ZM5.16573 7.7515L5.44856 7.46865L5.09049 7.11059L4.82507 7.54185L5.16573 7.7515ZM4.50898 9.0885L4.88045 9.23705L4.88313 9.22997L4.50898 9.0885ZM4.50848 9.08975L4.137 8.9412L4.13425 8.94848L4.50848 9.08975ZM4.40223 9.39075L4.78094 9.51951L4.78151 9.51781L4.40223 9.39075ZM4.38523 9.44075L4.00648 9.31198L4.0047 9.31748L4.38523 9.44075ZM4.30423 9.70825L3.91982 9.59765L3.91939 9.59916L4.30423 9.70825ZM4.27723 9.80325L3.8916 9.69697L3.89121 9.69841L4.27723 9.80325ZM4.18598 10.175L4.57658 10.2612L4.57667 10.2608L4.18598 10.175ZM4.05598 10.9475L3.65868 10.9011L3.65862 10.9016L4.05598 10.9475ZM4.03723 11.1165L4.43536 11.1552L4.43551 11.1535L4.03723 11.1165ZM4.01873 11.357L3.61957 11.331L3.61946 11.3327L4.01873 11.357ZM4.00973 11.4928L4.40925 11.5125L4.40934 11.5103L4.00973 11.4928ZM3.99998 11.875L3.59998 11.8744V11.875H3.99998ZM12.2695 19.74L12.2893 20.1395L12.293 20.1393L12.2695 19.74ZM12.2737 19.7397L12.2531 19.3403L12.2502 19.3404L12.2737 19.7397ZM12.6967 19.7065L12.7388 20.1043L12.7426 20.1039L12.6967 19.7065ZM12.7617 19.699V19.299H12.7387L12.7159 19.3016L12.7617 19.699ZM12.7627 19.699V20.099H12.7851L12.8073 20.0965L12.7627 19.699ZM13.1562 19.6448V19.2448H13.1237L13.0916 19.25L13.1562 19.6448ZM13.1565 19.6448V20.0448H13.1896L13.2222 20.0393L13.1565 19.6448ZM13.426 19.5965L13.5038 19.9889L13.5099 19.9876L13.426 19.5965ZM13.4702 19.587L13.3892 19.1953L13.3863 19.1959L13.4702 19.587ZM13.7915 19.514L13.6949 19.1258L13.694 19.126L13.7915 19.514ZM13.9505 19.4715L13.8457 19.0855L13.8449 19.0857L13.9505 19.4715ZM14.143 19.4167L14.0274 19.0338L14.026 19.0342L14.143 19.4167ZM14.7227 19.2165L14.5916 18.8386L14.5845 18.8411L14.5774 18.8438L14.7227 19.2165ZM14.735 19.2122L14.8661 19.5902L14.8749 19.5871L14.8835 19.5836L14.735 19.2122ZM14.7807 19.195L15.0636 18.9122L14.8782 18.7268L14.6343 18.8228L14.7807 19.195ZM28.5842 32.9988L28.3014 33.2816L28.7281 33.7083L28.9549 33.1491L28.5842 32.9988ZM29.6077 31.1933L29.9271 31.4341L30.1365 31.1563L29.8906 30.9104L29.6077 31.1933ZM15.1915 16.7775L15.4743 16.4947L15.2686 16.2889L15.0095 16.4213L15.1915 16.7775ZM14.5437 17.1085L14.3617 16.7523L14.361 16.7527L14.5437 17.1085ZM11.875 17.75L11.876 17.35H11.875V17.75ZM6.01648 11.4308L6.29934 11.1479L5.68257 10.5311L5.61759 11.401L6.01648 11.4308ZM8.29273 13.7072L8.00987 13.9901L8.00998 13.9902L8.29273 13.7072ZM13.7072 13.7072L13.99 13.9901L13.9902 13.99L13.7072 13.7072ZM13.7072 8.29275L13.9901 8.00996L13.9901 8.00989L13.7072 8.29275ZM11.4307 6.0165L11.401 5.61761L10.5309 5.68243L11.1479 6.29936L11.4307 6.0165ZM11.875 6L11.8749 6.4H11.875V6ZM17.1082 14.5437L17.4644 14.7258L17.4644 14.7257L17.1082 14.5437ZM16.7772 15.1915L16.421 15.0095L16.1236 15.5915H16.7772V15.1915ZM8.49888 43.6355C7.95591 43.637 7.41803 43.5308 6.91638 43.323L6.61028 44.0622C7.20966 44.3104 7.85232 44.4373 8.50107 44.4355L8.49888 43.6355ZM6.91638 43.323C6.41472 43.1153 5.95925 42.8101 5.57631 42.4251L5.00915 42.9894C5.46668 43.4493 6.01089 43.8139 6.61028 44.0622L6.91638 43.323ZM5.57561 42.4244C4.79409 41.6427 4.36448 40.6054 4.36448 39.5H3.56448C3.56448 40.8176 4.07836 42.0583 5.00984 42.9901L5.57561 42.4244ZM4.36448 39.5C4.36448 38.3946 4.79409 37.3573 5.57561 36.5756L5.00984 36.01C4.07836 36.9417 3.56448 38.1824 3.56448 39.5H4.36448ZM5.57557 36.5756L17.5756 24.5756L17.0099 24.0099L5.00989 36.0099L5.57557 36.5756ZM17.0099 24.5756L18.4244 25.9901L18.9901 25.4244L17.5756 24.0099L17.0099 24.5756ZM18.4244 25.4244L6.42439 37.4244L6.99007 37.9901L18.9901 25.9901L18.4244 25.4244ZM6.42446 37.4243C5.87037 37.9781 5.56448 38.7167 5.56448 39.5H6.36448C6.36448 38.9288 6.58609 38.3939 6.99 37.9902L6.42446 37.4243ZM5.56448 39.5C5.56448 40.2833 5.87036 41.0218 6.42414 41.5756L6.98982 41.0099C6.5861 40.6062 6.36448 40.0712 6.36448 39.5H5.56448ZM6.42414 41.5756C6.97814 42.1296 7.71663 42.4355 8.49998 42.4355V41.6355C7.92883 41.6355 7.39382 41.4139 6.98982 41.0099L6.42414 41.5756ZM8.49998 42.4355C9.2833 42.4355 10.0218 42.1296 10.5756 41.5758L10.0099 41.0102C9.60616 41.4139 9.07116 41.6355 8.49998 41.6355V42.4355ZM10.5756 41.5758L22.5756 29.5758L22.0099 29.0102L10.0099 41.0102L10.5756 41.5758ZM22.0099 29.5759L23.4244 30.9901L23.99 30.4244L22.5755 29.0101L22.0099 29.5759ZM23.4244 30.4244L11.4244 42.4244L11.9901 42.9901L23.9901 30.9901L23.4244 30.4244ZM11.4236 42.4251C11.0407 42.8101 10.5852 43.1153 10.0836 43.323L10.3897 44.0622C10.9891 43.8139 11.5333 43.4493 11.9908 42.9894L11.4236 42.4251ZM10.0836 43.323C9.58192 43.5308 9.04405 43.637 8.50107 43.6355L8.49888 44.4355C9.14763 44.4373 9.79029 44.3104 10.3897 44.0622L10.0836 43.323ZM36.4142 16.4H39.5927V15.6H36.4142V16.4ZM39.9436 16.192L44.2129 8.38976L43.5111 8.00574L39.2418 15.808L39.9436 16.192ZM44.1448 7.91491L40.0851 3.85516L39.5194 4.42084L43.5791 8.48059L44.1448 7.91491ZM39.6102 3.7871L31.808 8.0566L32.192 8.7584L39.9942 4.4889L39.6102 3.7871ZM31.6 8.4075V11.586H32.4V8.4075H31.6ZM31.7171 11.3032L25.0099 18.0102L25.5756 18.5758L32.2828 11.8688L31.7171 11.3032ZM25.0099 18.5758L26.4244 19.9903L26.9901 19.4247L25.5756 18.0102L25.0099 18.5758ZM26.9901 19.9903L34.2828 12.6971L33.7171 12.1314L26.4244 19.4247L26.9901 19.9903ZM34.4 12.4142V9.5925H33.6V12.4142H34.4ZM34.192 9.94341L39.6397 6.96266L39.2557 6.26084L33.808 9.24159L34.192 9.94341ZM39.1649 6.89459L41.1051 8.83484L41.6708 8.26916L39.7306 6.32891L39.1649 6.89459ZM41.0371 8.36002L38.0566 13.808L38.7584 14.192L41.7389 8.74398L41.0371 8.36002ZM38.4075 13.6H35.586V14.4H38.4075V13.6ZM35.3031 13.7172L28.0101 21.0099L28.5758 21.5756L35.8688 14.2828L35.3031 13.7172ZM28.0101 21.5756L29.4246 22.9901L29.9903 22.4244L28.5758 21.0099L28.0101 21.5756ZM29.9903 22.9901L36.6971 16.2828L36.1314 15.7172L29.4246 22.4244L29.9903 22.9901ZM44 36.6H41.9155V37.4H44V36.6ZM41.521 36.9335C41.1266 39.274 39.274 41.1264 36.9335 41.5211L37.0665 42.3099C39.7429 41.8586 41.8588 39.743 42.3099 37.0665L41.521 36.9335ZM36.6 41.9155V44H37.4V41.9155H36.6ZM37 43.6H35V44.4H37V43.6ZM35.4 44V41.9155H34.6V44H35.4ZM35.0665 41.5211C32.726 41.1266 30.8736 39.274 30.4789 36.9335L29.69 37.0665C30.1414 39.743 32.257 41.8589 34.9335 42.3099L35.0665 41.5211ZM30.0845 36.6H28V37.4H30.0845V36.6ZM28.4 37V35H27.6V37H28.4ZM28 35.4H30.0845V34.6H28V35.4ZM30.4789 35.0665C30.8733 32.726 32.7259 30.8736 35.0665 30.4789L34.9335 29.6901C32.257 30.1414 30.1411 32.257 29.69 34.9335L30.4789 35.0665ZM35.4 30.0845V28.0003H34.6V30.0845H35.4ZM35 28.4003H37V27.6003H35V28.4003ZM36.6 28.0003V30.0845H37.4V28.0003H36.6ZM36.9335 30.4789C39.274 30.8734 41.1264 32.726 41.521 35.0665L42.3099 34.9335C41.8586 32.257 39.743 30.1411 37.0665 29.6901L36.9335 30.4789ZM41.9155 35.4H44V34.6H41.9155V35.4ZM43.6 35V37H44.4V35H43.6ZM40.0002 35.6H36V36.4H40.0002V35.6ZM36.4 36V31.9998H35.6V36H36.4ZM36 31.5998C33.5733 31.5998 31.5997 33.5733 31.5997 36H32.3997C32.3997 34.0152 34.0151 32.3997 36 32.3997V31.5998ZM31.9997 36.4H36V35.6H31.9997V36.4ZM35.6 36V40.0003H36.4V36H35.6ZM36 40.4003C38.4266 40.4003 40.4002 38.4267 40.4002 36H39.6002C39.6002 37.9848 37.9848 39.6003 36 39.6003V40.4003ZM16.4946 15.4743L30.9109 29.8906L31.4766 29.3249L17.0603 14.9087L16.4946 15.4743ZM31.4346 29.9271C31.9614 29.5298 32.5378 29.203 33.1491 28.9549L32.8483 28.2136C32.1724 28.4879 31.5353 28.8492 30.9529 29.2884L31.4346 29.9271ZM33.2816 28.3014L19.4778 14.4979L18.9121 15.0636L32.7159 28.8671L33.2816 28.3014ZM19.5642 14.9346C19.5714 14.9173 19.5771 14.9014 19.5798 14.894C19.5835 14.8838 19.5837 14.8834 19.5836 14.8836L18.8408 14.5864C18.8375 14.5947 18.8348 14.6021 18.8326 14.6079C18.8306 14.6133 18.8286 14.6189 18.8276 14.6218C18.8247 14.6297 18.8248 14.6292 18.8257 14.6269L19.5642 14.9346ZM19.5893 14.8685L19.5935 14.8565L18.8394 14.5895L18.8352 14.6015L19.5893 14.8685ZM19.5895 14.8675C19.6669 14.6677 19.737 14.465 19.7996 14.26L19.0344 14.0265C18.9775 14.2127 18.9139 14.3969 18.8435 14.5785L19.5895 14.8675ZM19.8 14.2585C19.8209 14.1891 19.8398 14.1206 19.8574 14.0559L19.0855 13.8456C19.0682 13.9094 19.0516 13.9694 19.0339 14.028L19.8 14.2585ZM19.8715 13.9507V13.9505H19.0715V13.9507H19.8715ZM19.8573 14.0561C19.871 14.0061 19.8875 13.9471 19.9021 13.8881L19.1258 13.6949C19.114 13.7424 19.101 13.7889 19.0857 13.8449L19.8573 14.0561ZM19.9019 13.8889C19.9303 13.7758 19.9556 13.6629 19.9787 13.5513L19.1953 13.3892C19.1739 13.4926 19.1511 13.5942 19.126 13.6941L19.9019 13.8889ZM19.978 13.5547L19.9875 13.5107L19.2055 13.3418L19.196 13.3858L19.978 13.5547ZM19.9888 13.5041C20.0078 13.4082 20.0242 13.3132 20.0392 13.221L19.2497 13.092C19.2353 13.1803 19.2206 13.2653 19.2041 13.3484L19.9888 13.5041ZM20.0445 13.1565V13.1562H19.2445V13.1565H20.0445ZM20.0389 13.223L20.0501 13.1565L19.2613 13.023L19.2501 13.0895L20.0389 13.223ZM20.0511 13.1504C20.0687 13.0359 20.0838 12.9211 20.0966 12.8059L19.3014 12.7181C19.2899 12.822 19.2762 12.9257 19.2604 13.0291L20.0511 13.1504ZM20.0963 12.8078L20.1038 12.7428L19.3091 12.6511L19.3016 12.7162L20.0963 12.8078ZM20.1043 12.739C20.1199 12.5911 20.1315 12.4429 20.1392 12.2944L19.3403 12.2531C19.3333 12.3873 19.3228 12.5213 19.3087 12.655L20.1043 12.739ZM20.139 12.2973L20.1393 12.293L19.3407 12.246L19.3404 12.2502L20.139 12.2973ZM20.1395 12.2893C20.1463 12.1522 20.15 12.0141 20.15 11.875H19.35C19.35 11.9999 19.3467 12.1248 19.3405 12.2497L20.1395 12.2893ZM20.15 11.875C20.15 7.31159 16.4384 3.6 11.875 3.6V4.4C15.9966 4.4 19.35 7.75341 19.35 11.875H20.15ZM11.875 3.6C11.7394 3.6 11.6056 3.6037 11.473 3.61024L11.5124 4.40926C11.6334 4.4033 11.754 4.4 11.875 4.4V3.6ZM11.4752 3.61014C11.4304 3.61211 11.3551 3.6181 11.3323 3.61948L11.3806 4.41802C11.4489 4.4139 11.4641 4.41139 11.5103 4.40936L11.4752 3.61014ZM11.3303 3.61961C11.2501 3.62487 11.1649 3.63068 11.079 3.63876L11.1539 4.43524C11.2275 4.42832 11.3028 4.42313 11.3827 4.41789L11.3303 3.61961ZM11.0779 3.63887C11.0156 3.6449 10.9532 3.65263 10.8992 3.65905L10.9937 4.45345C11.0533 4.44637 11.1039 4.4401 11.1551 4.43513L11.0779 3.63887ZM10.9 3.65896C10.8333 3.66676 10.7624 3.6753 10.6911 3.68564L10.8059 4.47736C10.8656 4.4687 10.9272 4.46124 10.993 4.45354L10.9 3.65896ZM10.6919 3.68552C10.6217 3.69555 10.5527 3.70707 10.489 3.71773L10.621 4.50677C10.6858 4.49593 10.7457 4.48595 10.805 4.47748L10.6919 3.68552ZM10.4885 3.71782C10.3543 3.74044 10.2206 3.76637 10.0877 3.79556L10.2593 4.57694C10.3794 4.55056 10.5002 4.52713 10.6215 4.50668L10.4885 3.71782ZM10.0855 3.79604C10.0405 3.80619 9.99417 3.81716 9.95337 3.82665L10.1346 4.60585C10.1798 4.59534 10.2199 4.58581 10.2614 4.57646L10.0855 3.79604ZM9.95036 3.82736C9.86798 3.84719 9.78263 3.8683 9.69628 3.8919L9.90718 4.6636C9.98183 4.6432 10.058 4.62431 10.1376 4.60514L9.95036 3.82736ZM9.69648 3.89184C9.66646 3.90003 9.62296 3.91274 9.60277 3.91841L9.81918 4.68859C9.85949 4.67726 9.8765 4.67197 9.90698 4.66366L9.69648 3.89184ZM9.60165 3.91873C9.506 3.94591 9.41085 3.97482 9.31626 4.00545L9.5627 4.76655C9.64809 4.7389 9.73397 4.7128 9.82031 4.68827L9.60165 3.91873ZM9.31299 4.00653L9.26799 4.02153L9.52097 4.78047L9.56597 4.76547L9.31299 4.00653ZM9.26799 4.02153C9.16325 4.05644 9.05583 4.09361 8.948 4.13454L9.23195 4.88246C9.32562 4.84689 9.42171 4.81356 9.52097 4.78047L9.26799 4.02153ZM8.96349 4.12903L8.95899 4.13053L9.21197 4.88947L9.21647 4.88797L8.96349 4.12903ZM8.94383 4.13592C8.45572 4.32075 7.98627 4.55152 7.5418 4.82511L7.96116 5.50639C8.3625 5.25934 8.78639 5.05097 9.22713 4.88408L8.94383 4.13592ZM7.46863 5.44858L12.0099 9.99008L12.5756 9.42441L8.03433 4.88291L7.46863 5.44858ZM12.0099 9.99014C12.5666 10.5466 12.5667 11.4531 12.0099 12.0099L12.5756 12.5756C13.4448 11.7064 13.4448 10.2934 12.5755 9.42436L12.0099 9.99014ZM12.0099 12.0099C11.4531 12.5667 10.5469 12.5667 9.99007 12.0099L9.42439 12.5756C10.2936 13.4448 11.7064 13.4448 12.5756 12.5756L12.0099 12.0099ZM9.99006 12.0099L5.44856 7.46865L4.88289 8.03435L9.42439 12.5756L9.99006 12.0099ZM4.82507 7.54185C4.55093 7.98728 4.31981 8.4578 4.13483 8.94703L4.88313 9.22997C5.05015 8.78821 5.25885 8.36336 5.50638 7.96115L4.82507 7.54185ZM4.13757 8.93998L4.13707 8.94123L4.87988 9.23827L4.88038 9.23702L4.13757 8.93998ZM4.13425 8.94848C4.09403 9.05504 4.0575 9.16052 4.02294 9.26369L4.78151 9.51781C4.81445 9.41948 4.84743 9.32446 4.8827 9.23102L4.13425 8.94848ZM4.02352 9.26199L4.00652 9.31199L4.76394 9.56951L4.78094 9.51951L4.02352 9.26199ZM4.0047 9.31748C3.974 9.41223 3.94613 9.50622 3.91982 9.59765L4.68863 9.81885C4.71383 9.73128 4.73895 9.64677 4.76576 9.56402L4.0047 9.31748ZM3.91939 9.59916C3.91192 9.62553 3.90071 9.66392 3.8916 9.69698L4.66285 9.90952C4.67124 9.87908 4.67854 9.85447 4.68907 9.81734L3.91939 9.59916ZM3.89121 9.69841C3.85605 9.82787 3.82407 9.95817 3.79529 10.0892L4.57667 10.2608C4.60264 10.1425 4.63151 10.0249 4.66324 9.90809L3.89121 9.69841ZM3.79537 10.0888C3.73618 10.3571 3.69056 10.6282 3.65868 10.9011L4.45328 10.9939C4.48203 10.7477 4.52319 10.5032 4.57658 10.2612L3.79537 10.0888ZM3.65862 10.9016C3.65266 10.9532 3.64474 11.0171 3.63894 11.0795L4.43551 11.1535C4.44021 11.1029 4.44629 11.0543 4.45333 10.9934L3.65862 10.9016ZM3.6391 11.0778C3.63068 11.1645 3.62484 11.2503 3.61958 11.331L4.41788 11.383C4.42312 11.3027 4.42827 11.228 4.43535 11.1552L3.6391 11.0778ZM3.61946 11.3327C3.61809 11.3553 3.61209 11.4302 3.61011 11.4752L4.40934 11.5103C4.41136 11.4643 4.41386 11.4492 4.41799 11.3813L3.61946 11.3327ZM3.61022 11.473C3.60361 11.6067 3.60019 11.7405 3.59998 11.8744L4.39998 11.8756C4.40017 11.7545 4.40326 11.6335 4.40924 11.5125L3.61022 11.473ZM3.59998 11.875C3.59998 16.4384 7.31156 20.15 11.875 20.15V19.35C7.75339 19.35 4.39998 15.9966 4.39998 11.875H3.59998ZM11.875 20.15C12.014 20.15 12.1522 20.1463 12.2893 20.1395L12.2497 19.3405C12.1248 19.3467 11.9999 19.35 11.875 19.35V20.15ZM12.293 20.1393L12.2972 20.1391L12.2502 19.3404L12.246 19.3407L12.293 20.1393ZM12.2943 20.1392C12.4428 20.1316 12.591 20.1199 12.7388 20.1043L12.6547 19.3087C12.5211 19.3228 12.3872 19.3334 12.2531 19.3403L12.2943 20.1392ZM12.7426 20.1039L12.8076 20.0964L12.7159 19.3016L12.6509 19.3091L12.7426 20.1039ZM12.7617 20.099H12.7627V19.299H12.7617V20.099ZM12.8073 20.0965C12.9456 20.081 13.0835 20.062 13.2209 20.0395L13.0916 19.25C12.9676 19.2703 12.8431 19.2875 12.7182 19.3015L12.8073 20.0965ZM13.1562 20.0448H13.1565V19.2448H13.1562V20.0448ZM13.2222 20.0393C13.3132 20.0241 13.4081 20.0078 13.5038 19.9889L13.3482 19.2041C13.2648 19.2207 13.1797 19.2354 13.0907 19.2502L13.2222 20.0393ZM13.5099 19.9876L13.5542 19.9781L13.3863 19.1959L13.342 19.2054L13.5099 19.9876ZM13.5513 19.9787C13.6629 19.9556 13.7758 19.9304 13.8889 19.9019L13.694 19.126C13.5942 19.1511 13.4925 19.1739 13.3892 19.1953L13.5513 19.9787ZM13.8881 19.9022C13.9471 19.8875 14.0061 19.871 14.056 19.8573L13.8449 19.0857C13.7888 19.101 13.7423 19.114 13.6949 19.1258L13.8881 19.9022ZM14.0552 19.8575C14.1204 19.8399 14.1898 19.8207 14.26 19.7993L14.026 19.0342C13.9687 19.0518 13.9096 19.0681 13.8457 19.0855L14.0552 19.8575ZM14.2586 19.7997C14.4644 19.7375 14.6678 19.6673 14.8681 19.5892L14.5774 18.8438C14.3966 18.9144 14.2131 18.9777 14.0274 19.0338L14.2586 19.7997ZM14.8538 19.5944L14.8661 19.5902L14.6039 18.8343L14.5916 18.8386L14.8538 19.5944ZM14.8835 19.5836C14.885 19.583 14.8876 19.5821 14.8957 19.5791C14.9021 19.5767 14.9144 19.5722 14.9272 19.5672L14.6343 18.8228C14.6318 18.8238 14.6287 18.8249 14.6198 18.8282C14.6126 18.8308 14.5999 18.8355 14.5864 18.8409L14.8835 19.5836ZM14.4979 19.4778L28.3014 33.2816L28.8671 32.7159L15.0636 18.9122L14.4979 19.4778ZM28.9549 33.1491C29.203 32.5376 29.5298 31.961 29.9271 31.4341L29.2883 30.9524C28.8491 31.535 28.4878 32.1723 28.2136 32.8484L28.9549 33.1491ZM29.8906 30.9104L15.4743 16.4947L14.9086 17.0603L29.3249 31.4761L29.8906 30.9104ZM15.0095 16.4213L14.3617 16.7523L14.7257 17.4647L15.3735 17.1337L15.0095 16.4213ZM14.361 16.7527C13.5923 17.1474 12.7402 17.3522 11.876 17.35L11.874 18.15C12.8659 18.1525 13.844 17.9174 14.7264 17.4643L14.361 16.7527ZM11.875 17.35C8.85639 17.35 6.39998 14.8936 6.39998 11.875H5.59998C5.59998 15.3354 8.41456 18.15 11.875 18.15V17.35ZM6.39998 11.875C6.39998 11.7361 6.40511 11.5978 6.41537 11.4605L5.61759 11.401C5.60584 11.5582 5.59998 11.7164 5.59998 11.875H6.39998ZM5.73362 11.7136L8.00987 13.9901L8.57559 13.4244L6.29934 11.1479L5.73362 11.7136ZM8.00998 13.9902C8.80816 14.7878 9.87133 15.2285 11 15.2285V14.4285C10.0836 14.4285 9.2238 14.0722 8.57547 13.4243L8.00998 13.9902ZM11 15.2285C12.1286 15.2285 13.1918 14.7881 13.99 13.9901L13.4244 13.4244C12.7762 14.0724 11.9164 14.4285 11 14.4285V15.2285ZM13.9902 13.99C14.7878 13.1918 15.2285 12.1287 15.2285 11H14.4285C14.4285 11.9163 14.0722 12.7762 13.4243 13.4245L13.9902 13.99ZM15.2285 11C15.2285 9.87141 14.7881 8.8082 13.9901 8.00996L13.4243 8.57554C14.0724 9.2238 14.4285 10.0836 14.4285 11H15.2285ZM13.9901 8.00989L11.7136 5.73364L11.1479 6.29936L13.4244 8.57561L13.9901 8.00989ZM11.4604 6.41539C11.5984 6.40512 11.7366 6.39998 11.8749 6.4L11.875 5.6C11.7169 5.59998 11.5587 5.60585 11.401 5.61761L11.4604 6.41539ZM11.875 6.4C14.8936 6.4 17.35 8.85641 17.35 11.875H18.15C18.15 8.41459 15.3354 5.6 11.875 5.6V6.4ZM17.35 11.875C17.35 12.7493 17.1489 13.5849 16.752 14.3617L17.4644 14.7257C17.919 13.8361 18.15 12.8757 18.15 11.875H17.35ZM16.752 14.3617L16.421 15.0095L17.1334 15.3735L17.4644 14.7258L16.752 14.3617ZM16.7772 15.5915H16.7775V14.7915H16.7772V15.5915Z" fill="#CA3E5D" mask="url(#path-1-outside-1_3620_398)"/>
</svg>
